<?xml version="1.0" encoding="UTF-8"?>
<svg width="48" height="48" viewBox="0 0 48 48" fill="none" xmlns="http://www.w3.org/2000/svg">
  <rect width="48" height="48" rx="8" fill="black"/>
  <path d="M10 14V34H18.5C22.5 34 25 31.5 25 27.5C25 24.5 23.5 22.5 20.5 21.5C22.5 20.5 24 19 24 16C24 12 21.5 10 17.5 10H10V14ZM14 14H17.5C19.5 14 20.5 15 20.5 17C20.5 19 19.5 20 17.5 20H14V14ZM14 24H18.5C20.5 24 21.5 25 21.5 27.5C21.5 30 20.5 31 18.5 31H14V24Z" fill="#FFA500"/>
  <path d="M28 14V34H32V27H36C40 27 42 25 42 21C42 17 40 14 36 14H28ZM32 18H36C38 18 39 19 39 21C39 23 38 24 36 24H32V18Z" fill="white"/>
</svg>